<?xml version="1.0" standalone="no"?>
<!DOCTYPE svg PUBLIC "-//W3C//DTD SVG 20010904//EN"
 "http://www.w3.org/TR/2001/REC-SVG-20010904/DTD/svg10.dtd">
<svg version="1.0" xmlns="http://www.w3.org/2000/svg"
 width="1024.000000pt" height="1024.000000pt" viewBox="0 0 1024.000000 1024.000000"
 preserveAspectRatio="xMidYMid meet">

<g transform="translate(0.000000,1024.000000) scale(0.100000,-0.100000)"
fill="#000000" stroke="none">
<path d="M5970 7609 c-619 -70 -1129 -409 -1439 -957 -22 -41 -41 -76 -41 -78
0 -2 92 -4 203 -4 l204 0 78 106 c221 297 517 484 896 565 134 29 408 36 547
15 193 -29 402 -103 564 -197 480 -280 768 -847 719 -1414 -34 -396 -190 -718
-483 -1001 -280 -270 -628 -416 -1026 -431 -453 -17 -848 128 -1156 426 -111
109 -204 220 -276 333 l-49 77 582 -2 582 -2 5 -303 5 -302 637 637 637 638
-639 645 -639 645 -3 -285 -3 -285 -555 0 -555 0 -115 27 c-190 44 -264 52
-475 52 -168 0 -218 -3 -313 -22 -523 -105 -982 -441 -1242 -908 -213 -384
-281 -857 -189 -1319 73 -366 291 -739 576 -987 253 -221 524 -356 853 -425
113 -24 146 -27 345 -27 191 -1 235 2 335 22 529 107 922 389 1220 877 33 55
60 103 60 107 0 4 -87 8 -193 8 l-193 0 -50 -72 c-27 -40 -96 -120 -154 -178
-202 -203 -441 -331 -740 -396 -122 -27 -450 -27 -565 0 -377 87 -672 276
-896 575 -288 384 -379 920 -233 1369 142 435 450 769 857 931 249 98 445 127
690 102 488 -51 897 -304 1154 -716 l53 -85 -555 0 -555 0 -2 298 -3 297 -643
-640 -643 -640 646 -645 645 -645 0 293 0 292 528 0 528 0 85 -25 c540 -163
1097 -100 1536 173 453 281 779 737 887 1243 38 176 49 305 43 484 -15 422
-162 796 -445 1136 -198 236 -487 430 -795 533 -241 81 -574 115 -837 85z"/>
</g>
</svg>
